ISO-10303-21;
HEADER;
/*Generated by software containing ST-Developer
 * from STEP Tools, Inc. (www.steptools.com) 
 */
/*OPTION: using custom renumber hook */
/*description */
/*implementation_level */
FILE_DESCRIPTION(('STEP AP242 Edition 2','STEP AP242 Edition 2''CAx-IF Rec.Pracs.---Representation and Presentation of Product Manufa
cturing Information (PMI)---4.0---2014-10-13','STEP AP242 Edition 2''CAx-IF Rec.Pracs.---Representation and Presentation of Product Manufa
cturing Information (PMI)---4.0---2014-10-13''CAx-IF Rec.Pracs.---3D Tessellated Geometry---0.4---2014-09-14','STEP AP242 Edition 2''CAx-IF Rec.Pracs.---Representation and Presentation of Product Manufa
cturing Information (PMI)---4.0---2014-10-13''CAx-IF Rec.Pracs.---3D Tessellated Geometry---0.4---2014-09-14''2;1','STEP AP242 Edition 2''CAx-IF Rec.Pracs.---Representation and Presentation of Product Manufa
cturing Information (PMI)---4.0---2014-10-13''CAx-IF Rec.Pracs.---3D Tessellated Geometry---0.4---2014-09-14''2;1''CAx-IF Rec.Pracs.---User Defined Attributes---1.5---2016-08-15'),'2;1');
/*name */
/*time_stamp */
/*author */
/*organization */
/*preprocessor_version */
/*originating_system */
/*authorisation */
FILE_NAME('/vol/tmp/translate-1261302635964475145/Part Studio 1.step','2026-04-02T03:36:06',(''),(''),'ST-DEVELOPER v20','ONSHAPE BY PTC INC, 1.212','  ');
FILE_SCHEMA(('AP242_MANAGED_MODEL_BASED_3D_ENGINEERING_MIM_LF { 1 0 10303 442 3 1 4 }'));
ENDSEC;
DATA;
#10=SHAPE_REPRESENTATION_RELATIONSHIP('','',#837,#11);
#11=ADVANCED_BREP_SHAPE_REPRESENTATION('',(#835),#1349);
#12=VERTEX_LOOP('',#444);
#13=CONICAL_SURFACE('',#892,0.0635,1.50098315671512);
#14=CYLINDRICAL_SURFACE('',#875,0.00635);
#15=CYLINDRICAL_SURFACE('',#876,0.0635);
#16=CYLINDRICAL_SURFACE('',#880,0.0635);
#17=CYLINDRICAL_SURFACE('',#886,0.0635);
#18=CYLINDRICAL_SURFACE('',#888,0.0635);
#19=ELLIPSE('',#863,0.18195104800881,0.00635);
#20=ELLIPSE('',#864,0.18195104800881,0.00635);
#21=CIRCLE('',#840,0.00635);
#22=CIRCLE('',#850,0.0635);
#23=CIRCLE('',#852,0.0635);
#24=CIRCLE('',#854,0.0635);
#25=CIRCLE('',#856,0.0635);
#26=CIRCLE('',#857,0.0635);
#27=CIRCLE('',#858,0.0635);
#28=CIRCLE('',#859,0.0635);
#29=CIRCLE('',#861,0.0635);
#30=CIRCLE('',#867,0.00635);
#31=CIRCLE('',#874,0.00635);
#32=CIRCLE('',#877,0.0635);
#33=CIRCLE('',#881,0.0635);
#34=CIRCLE('',#887,0.0635);
#35=CIRCLE('',#889,0.0635);
#36=ORIENTED_EDGE('',*,*,#262,.F.);
#37=ORIENTED_EDGE('',*,*,#263,.T.);
#38=ORIENTED_EDGE('',*,*,#264,.T.);
#39=ORIENTED_EDGE('',*,*,#265,.F.);
#40=ORIENTED_EDGE('',*,*,#266,.F.);
#41=ORIENTED_EDGE('',*,*,#267,.T.);
#42=ORIENTED_EDGE('',*,*,#268,.T.);
#43=ORIENTED_EDGE('',*,*,#269,.T.);
#44=ORIENTED_EDGE('',*,*,#270,.F.);
#45=ORIENTED_EDGE('',*,*,#271,.T.);
#46=ORIENTED_EDGE('',*,*,#272,.T.);
#47=ORIENTED_EDGE('',*,*,#273,.T.);
#48=ORIENTED_EDGE('',*,*,#274,.F.);
#49=ORIENTED_EDGE('',*,*,#275,.F.);
#50=ORIENTED_EDGE('',*,*,#276,.F.);
#51=ORIENTED_EDGE('',*,*,#277,.T.);
#52=ORIENTED_EDGE('',*,*,#278,.F.);
#53=ORIENTED_EDGE('',*,*,#279,.T.);
#54=ORIENTED_EDGE('',*,*,#280,.F.);
#55=ORIENTED_EDGE('',*,*,#281,.F.);
#56=ORIENTED_EDGE('',*,*,#282,.F.);
#57=ORIENTED_EDGE('',*,*,#283,.T.);
#58=ORIENTED_EDGE('',*,*,#284,.T.);
#59=ORIENTED_EDGE('',*,*,#285,.F.);
#60=ORIENTED_EDGE('',*,*,#286,.F.);
#61=ORIENTED_EDGE('',*,*,#266,.T.);
#62=ORIENTED_EDGE('',*,*,#287,.F.);
#63=ORIENTED_EDGE('',*,*,#277,.F.);
#64=ORIENTED_EDGE('',*,*,#288,.F.);
#65=ORIENTED_EDGE('',*,*,#289,.F.);
#66=ORIENTED_EDGE('',*,*,#290,.T.);
#67=ORIENTED_EDGE('',*,*,#291,.T.);
#68=ORIENTED_EDGE('',*,*,#268,.F.);
#69=ORIENTED_EDGE('',*,*,#292,.T.);
#70=ORIENTED_EDGE('',*,*,#281,.T.);
#71=ORIENTED_EDGE('',*,*,#293,.T.);
#72=ORIENTED_EDGE('',*,*,#294,.T.);
#73=ORIENTED_EDGE('',*,*,#295,.T.);
#74=ORIENTED_EDGE('',*,*,#296,.F.);
#75=ORIENTED_EDGE('',*,*,#297,.T.);
#76=ORIENTED_EDGE('',*,*,#298,.F.);
#77=ORIENTED_EDGE('',*,*,#299,.F.);
#78=ORIENTED_EDGE('',*,*,#300,.F.);
#79=ORIENTED_EDGE('',*,*,#296,.T.);
#80=ORIENTED_EDGE('',*,*,#301,.F.);
#81=ORIENTED_EDGE('',*,*,#302,.F.);
#82=ORIENTED_EDGE('',*,*,#303,.F.);
#83=ORIENTED_EDGE('',*,*,#299,.T.);
#84=ORIENTED_EDGE('',*,*,#302,.T.);
#85=ORIENTED_EDGE('',*,*,#304,.T.);
#86=ORIENTED_EDGE('',*,*,#294,.F.);
#87=ORIENTED_EDGE('',*,*,#305,.T.);
#88=ORIENTED_EDGE('',*,*,#306,.F.);
#89=ORIENTED_EDGE('',*,*,#307,.T.);
#90=ORIENTED_EDGE('',*,*,#308,.T.);
#91=ORIENTED_EDGE('',*,*,#309,.F.);
#92=ORIENTED_EDGE('',*,*,#310,.F.);
#93=ORIENTED_EDGE('',*,*,#311,.T.);
#94=ORIENTED_EDGE('',*,*,#312,.T.);
#95=ORIENTED_EDGE('',*,*,#313,.F.);
#96=ORIENTED_EDGE('',*,*,#314,.F.);
#97=ORIENTED_EDGE('',*,*,#315,.T.);
#98=ORIENTED_EDGE('',*,*,#316,.T.);
#99=ORIENTED_EDGE('',*,*,#291,.F.);
#100=ORIENTED_EDGE('',*,*,#317,.T.);
#101=ORIENTED_EDGE('',*,*,#318,.T.);
#102=ORIENTED_EDGE('',*,*,#319,.F.);
#103=ORIENTED_EDGE('',*,*,#264,.F.);
#104=ORIENTED_EDGE('',*,*,#320,.F.);
#105=ORIENTED_EDGE('',*,*,#321,.T.);
#106=ORIENTED_EDGE('',*,*,#322,.F.);
#107=ORIENTED_EDGE('',*,*,#285,.T.);
#108=ORIENTED_EDGE('',*,*,#323,.F.);
#109=ORIENTED_EDGE('',*,*,#272,.F.);
#110=ORIENTED_EDGE('',*,*,#324,.F.);
#111=ORIENTED_EDGE('',*,*,#325,.T.);
#112=ORIENTED_EDGE('',*,*,#326,.F.);
#113=ORIENTED_EDGE('',*,*,#289,.T.);
#114=ORIENTED_EDGE('',*,*,#327,.T.);
#115=ORIENTED_EDGE('',*,*,#328,.T.);
#116=ORIENTED_EDGE('',*,*,#329,.T.);
#117=ORIENTED_EDGE('',*,*,#262,.T.);
#118=ORIENTED_EDGE('',*,*,#330,.F.);
#119=ORIENTED_EDGE('',*,*,#331,.T.);
#120=ORIENTED_EDGE('',*,*,#332,.F.);
#121=ORIENTED_EDGE('',*,*,#283,.F.);
#122=ORIENTED_EDGE('',*,*,#333,.F.);
#123=ORIENTED_EDGE('',*,*,#334,.T.);
#124=ORIENTED_EDGE('',*,*,#335,.F.);
#125=ORIENTED_EDGE('',*,*,#336,.T.);
#126=ORIENTED_EDGE('',*,*,#337,.F.);
#127=ORIENTED_EDGE('',*,*,#274,.T.);
#128=ORIENTED_EDGE('',*,*,#338,.T.);
#129=ORIENTED_EDGE('',*,*,#339,.T.);
#130=ORIENTED_EDGE('',*,*,#340,.F.);
#131=ORIENTED_EDGE('',*,*,#279,.F.);
#132=ORIENTED_EDGE('',*,*,#341,.F.);
#133=ORIENTED_EDGE('',*,*,#342,.T.);
#134=ORIENTED_EDGE('',*,*,#343,.F.);
#135=ORIENTED_EDGE('',*,*,#344,.F.);
#136=ORIENTED_EDGE('',*,*,#306,.T.);
#137=ORIENTED_EDGE('',*,*,#345,.T.);
#138=ORIENTED_EDGE('',*,*,#346,.F.);
#139=ORIENTED_EDGE('',*,*,#347,.T.);
#140=ORIENTED_EDGE('',*,*,#348,.F.);
#141=ORIENTED_EDGE('',*,*,#307,.F.);
#142=ORIENTED_EDGE('',*,*,#344,.T.);
#143=ORIENTED_EDGE('',*,*,#349,.T.);
#144=ORIENTED_EDGE('',*,*,#350,.F.);
#145=ORIENTED_EDGE('',*,*,#308,.F.);
#146=ORIENTED_EDGE('',*,*,#348,.T.);
#147=ORIENTED_EDGE('',*,*,#351,.F.);
#148=ORIENTED_EDGE('',*,*,#345,.F.);
#149=ORIENTED_EDGE('',*,*,#309,.T.);
#150=ORIENTED_EDGE('',*,*,#350,.T.);
#151=ORIENTED_EDGE('',*,*,#343,.T.);
#152=ORIENTED_EDGE('',*,*,#351,.T.);
#153=ORIENTED_EDGE('',*,*,#349,.F.);
#154=ORIENTED_EDGE('',*,*,#347,.F.);
#155=ORIENTED_EDGE('',*,*,#352,.F.);
#156=ORIENTED_EDGE('',*,*,#269,.F.);
#157=ORIENTED_EDGE('',*,*,#293,.F.);
#158=ORIENTED_EDGE('',*,*,#280,.T.);
#159=ORIENTED_EDGE('',*,*,#340,.T.);
#160=ORIENTED_EDGE('',*,*,#353,.F.);
#161=ORIENTED_EDGE('',*,*,#341,.T.);
#162=ORIENTED_EDGE('',*,*,#278,.T.);
#163=ORIENTED_EDGE('',*,*,#287,.T.);
#164=ORIENTED_EDGE('',*,*,#271,.F.);
#165=ORIENTED_EDGE('',*,*,#354,.F.);
#166=ORIENTED_EDGE('',*,*,#338,.F.);
#167=ORIENTED_EDGE('',*,*,#346,.T.);
#168=ORIENTED_EDGE('',*,*,#354,.T.);
#169=ORIENTED_EDGE('',*,*,#342,.F.);
#170=ORIENTED_EDGE('',*,*,#353,.T.);
#171=ORIENTED_EDGE('',*,*,#270,.T.);
#172=ORIENTED_EDGE('',*,*,#352,.T.);
#173=ORIENTED_EDGE('',*,*,#339,.F.);
#174=ORIENTED_EDGE('',*,*,#355,.T.);
#175=ORIENTED_EDGE('',*,*,#356,.F.);
#176=ORIENTED_EDGE('',*,*,#357,.F.);
#177=ORIENTED_EDGE('',*,*,#325,.F.);
#178=ORIENTED_EDGE('',*,*,#326,.T.);
#179=ORIENTED_EDGE('',*,*,#357,.T.);
#180=ORIENTED_EDGE('',*,*,#314,.T.);
#181=ORIENTED_EDGE('',*,*,#290,.F.);
#182=ORIENTED_EDGE('',*,*,#324,.T.);
#183=ORIENTED_EDGE('',*,*,#275,.T.);
#184=ORIENTED_EDGE('',*,*,#337,.T.);
#185=ORIENTED_EDGE('',*,*,#355,.F.);
#186=ORIENTED_EDGE('',*,*,#358,.T.);
#187=ORIENTED_EDGE('',*,*,#359,.F.);
#188=ORIENTED_EDGE('',*,*,#360,.F.);
#189=ORIENTED_EDGE('',*,*,#328,.F.);
#190=ORIENTED_EDGE('',*,*,#288,.T.);
#191=ORIENTED_EDGE('',*,*,#316,.F.);
#192=ORIENTED_EDGE('',*,*,#358,.F.);
#193=ORIENTED_EDGE('',*,*,#327,.F.);
#194=ORIENTED_EDGE('',*,*,#360,.T.);
#195=ORIENTED_EDGE('',*,*,#317,.F.);
#196=ORIENTED_EDGE('',*,*,#263,.F.);
#197=ORIENTED_EDGE('',*,*,#329,.F.);
#198=ORIENTED_EDGE('',*,*,#330,.T.);
#199=ORIENTED_EDGE('',*,*,#265,.T.);
#200=ORIENTED_EDGE('',*,*,#319,.T.);
#201=ORIENTED_EDGE('',*,*,#361,.F.);
#202=ORIENTED_EDGE('',*,*,#332,.T.);
#203=ORIENTED_EDGE('',*,*,#362,.T.);
#204=ORIENTED_EDGE('',*,*,#320,.T.);
#205=ORIENTED_EDGE('',*,*,#284,.F.);
#206=ORIENTED_EDGE('',*,*,#361,.T.);
#207=ORIENTED_EDGE('',*,*,#363,.F.);
#208=ORIENTED_EDGE('',*,*,#362,.F.);
#209=ORIENTED_EDGE('',*,*,#331,.F.);
#210=ORIENTED_EDGE('',*,*,#364,.T.);
#211=ORIENTED_EDGE('',*,*,#365,.F.);
#212=ORIENTED_EDGE('',*,*,#366,.F.);
#213=ORIENTED_EDGE('',*,*,#334,.F.);
#214=ORIENTED_EDGE('',*,*,#333,.T.);
#215=ORIENTED_EDGE('',*,*,#282,.T.);
#216=ORIENTED_EDGE('',*,*,#322,.T.);
#217=ORIENTED_EDGE('',*,*,#364,.F.);
#218=ORIENTED_EDGE('',*,*,#323,.T.);
#219=ORIENTED_EDGE('',*,*,#366,.T.);
#220=ORIENTED_EDGE('',*,*,#335,.T.);
#221=ORIENTED_EDGE('',*,*,#273,.F.);
#222=ORIENTED_EDGE('',*,*,#356,.T.);
#223=ORIENTED_EDGE('',*,*,#336,.F.);
#224=ORIENTED_EDGE('',*,*,#365,.T.);
#225=ORIENTED_EDGE('',*,*,#321,.F.);
#226=ORIENTED_EDGE('',*,*,#363,.T.);
#227=ORIENTED_EDGE('',*,*,#318,.F.);
#228=ORIENTED_EDGE('',*,*,#359,.T.);
#229=ORIENTED_EDGE('',*,*,#315,.F.);
#230=ORIENTED_EDGE('',*,*,#367,.T.);
#231=ORIENTED_EDGE('',*,*,#311,.F.);
#232=ORIENTED_EDGE('',*,*,#368,.F.);
#233=ORIENTED_EDGE('',*,*,#369,.T.);
#234=ORIENTED_EDGE('',*,*,#368,.T.);
#235=ORIENTED_EDGE('',*,*,#310,.T.);
#236=ORIENTED_EDGE('',*,*,#370,.F.);
#237=ORIENTED_EDGE('',*,*,#371,.F.);
#238=ORIENTED_EDGE('',*,*,#370,.T.);
#239=ORIENTED_EDGE('',*,*,#313,.T.);
#240=ORIENTED_EDGE('',*,*,#372,.F.);
#241=ORIENTED_EDGE('',*,*,#373,.F.);
#242=ORIENTED_EDGE('',*,*,#372,.T.);
#243=ORIENTED_EDGE('',*,*,#312,.F.);
#244=ORIENTED_EDGE('',*,*,#367,.F.);
#245=ORIENTED_EDGE('',*,*,#374,.T.);
#246=ORIENTED_EDGE('',*,*,#297,.F.);
#247=ORIENTED_EDGE('',*,*,#300,.T.);
#248=ORIENTED_EDGE('',*,*,#303,.T.);
#249=ORIENTED_EDGE('',*,*,#305,.F.);
#250=ORIENTED_EDGE('',*,*,#369,.F.);
#251=ORIENTED_EDGE('',*,*,#371,.T.);
#252=ORIENTED_EDGE('',*,*,#373,.T.);
#253=ORIENTED_EDGE('',*,*,#374,.F.);
#254=ORIENTED_EDGE('',*,*,#304,.F.);
#255=ORIENTED_EDGE('',*,*,#301,.T.);
#256=ORIENTED_EDGE('',*,*,#298,.T.);
#257=ORIENTED_EDGE('',*,*,#295,.F.);
#258=ORIENTED_EDGE('',*,*,#286,.T.);
#259=ORIENTED_EDGE('',*,*,#276,.T.);
#260=ORIENTED_EDGE('',*,*,#292,.F.);
#261=ORIENTED_EDGE('',*,*,#267,.F.);
#262=EDGE_CURVE('',#375,#376,#449,.T.);
#263=EDGE_CURVE('',#375,#377,#450,.T.);
#264=EDGE_CURVE('',#377,#378,#451,.T.);
#265=EDGE_CURVE('',#376,#378,#452,.T.);
#266=EDGE_CURVE('',#379,#380,#453,.T.);
#267=EDGE_CURVE('',#379,#381,#454,.T.);
#268=EDGE_CURVE('',#381,#382,#455,.T.);
#269=EDGE_CURVE('',#382,#383,#456,.T.);
#270=EDGE_CURVE('',#384,#383,#21,.T.);
#271=EDGE_CURVE('',#384,#380,#457,.T.);
#272=EDGE_CURVE('',#385,#386,#458,.T.);
#273=EDGE_CURVE('',#386,#387,#459,.T.);
#274=EDGE_CURVE('',#388,#387,#460,.T.);
#275=EDGE_CURVE('',#385,#388,#461,.T.);
#276=EDGE_CURVE('',#389,#390,#462,.T.);
#277=EDGE_CURVE('',#389,#391,#463,.T.);
#278=EDGE_CURVE('',#392,#391,#464,.T.);
#279=EDGE_CURVE('',#392,#393,#465,.T.);
#280=EDGE_CURVE('',#394,#393,#466,.T.);
#281=EDGE_CURVE('',#390,#394,#467,.T.);
#282=EDGE_CURVE('',#395,#396,#468,.T.);
#283=EDGE_CURVE('',#395,#397,#469,.T.);
#284=EDGE_CURVE('',#397,#398,#470,.T.);
#285=EDGE_CURVE('',#396,#398,#471,.T.);
#286=EDGE_CURVE('',#379,#389,#472,.T.);
#287=EDGE_CURVE('',#391,#380,#473,.T.);
#288=EDGE_CURVE('',#399,#400,#474,.T.);
#289=EDGE_CURVE('',#401,#399,#475,.T.);
#290=EDGE_CURVE('',#401,#402,#476,.T.);
#291=EDGE_CURVE('',#402,#400,#477,.T.);
#292=EDGE_CURVE('',#381,#390,#478,.T.);
#293=EDGE_CURVE('',#394,#382,#479,.T.);
#294=EDGE_CURVE('',#403,#404,#480,.T.);
#295=EDGE_CURVE('',#404,#405,#481,.T.);
#296=EDGE_CURVE('',#406,#405,#482,.T.);
#297=EDGE_CURVE('',#406,#403,#483,.T.);
#298=EDGE_CURVE('',#407,#405,#484,.T.);
#299=EDGE_CURVE('',#408,#407,#485,.T.);
#300=EDGE_CURVE('',#406,#408,#486,.T.);
#301=EDGE_CURVE('',#409,#407,#487,.T.);
#302=EDGE_CURVE('',#410,#409,#488,.T.);
#303=EDGE_CURVE('',#408,#410,#489,.T.);
#304=EDGE_CURVE('',#409,#404,#490,.T.);
#305=EDGE_CURVE('',#403,#410,#491,.T.);
#306=EDGE_CURVE('',#411,#412,#492,.T.);
#307=EDGE_CURVE('',#411,#413,#493,.T.);
#308=EDGE_CURVE('',#413,#414,#494,.T.);
#309=EDGE_CURVE('',#412,#414,#495,.T.);
#310=EDGE_CURVE('',#415,#416,#496,.T.);
#311=EDGE_CURVE('',#415,#417,#497,.T.);
#312=EDGE_CURVE('',#417,#418,#498,.T.);
#313=EDGE_CURVE('',#416,#418,#499,.T.);
#314=EDGE_CURVE('',#419,#402,#500,.T.);
#315=EDGE_CURVE('',#419,#420,#22,.T.);
#316=EDGE_CURVE('',#420,#400,#501,.T.);
#317=EDGE_CURVE('',#377,#421,#502,.T.);
#318=EDGE_CURVE('',#421,#422,#23,.T.);
#319=EDGE_CURVE('',#378,#422,#503,.T.);
#320=EDGE_CURVE('',#423,#398,#504,.T.);
#321=EDGE_CURVE('',#423,#424,#24,.T.);
#322=EDGE_CURVE('',#396,#424,#505,.T.);
#323=EDGE_CURVE('',#386,#425,#506,.T.);
#324=EDGE_CURVE('',#426,#385,#507,.T.);
#325=EDGE_CURVE('',#426,#427,#25,.F.);
#326=EDGE_CURVE('',#401,#427,#508,.T.);
#327=EDGE_CURVE('',#399,#428,#509,.T.);
#328=EDGE_CURVE('',#428,#429,#26,.F.);
#329=EDGE_CURVE('',#429,#375,#510,.T.);
#330=EDGE_CURVE('',#430,#376,#511,.T.);
#331=EDGE_CURVE('',#430,#431,#27,.F.);
#332=EDGE_CURVE('',#397,#431,#512,.T.);
#333=EDGE_CURVE('',#432,#395,#513,.T.);
#334=EDGE_CURVE('',#432,#425,#28,.F.);
#335=EDGE_CURVE('',#433,#387,#514,.T.);
#336=EDGE_CURVE('',#433,#434,#29,.T.);
#337=EDGE_CURVE('',#388,#434,#515,.T.);
#338=EDGE_CURVE('',#435,#436,#516,.T.);
#339=EDGE_CURVE('',#436,#437,#19,.T.);
#340=EDGE_CURVE('',#393,#437,#517,.T.);
#341=EDGE_CURVE('',#438,#392,#518,.T.);
#342=EDGE_CURVE('',#438,#435,#20,.T.);
#343=EDGE_CURVE('',#439,#440,#519,.T.);
#344=EDGE_CURVE('',#411,#439,#520,.T.);
#345=EDGE_CURVE('',#412,#440,#521,.T.);
#346=EDGE_CURVE('',#441,#441,#30,.F.);
#347=EDGE_CURVE('',#439,#442,#522,.T.);
#348=EDGE_CURVE('',#413,#442,#523,.T.);
#349=EDGE_CURVE('',#442,#443,#524,.T.);
#350=EDGE_CURVE('',#414,#443,#525,.T.);
#351=EDGE_CURVE('',#440,#443,#526,.T.);
#352=EDGE_CURVE('',#383,#437,#527,.T.);
#353=EDGE_CURVE('',#438,#384,#528,.F.);
#354=EDGE_CURVE('',#436,#435,#31,.T.);
#355=EDGE_CURVE('',#426,#434,#529,.T.);
#356=EDGE_CURVE('',#419,#434,#32,.T.);
#357=EDGE_CURVE('',#427,#419,#530,.T.);
#358=EDGE_CURVE('',#428,#420,#531,.T.);
#359=EDGE_CURVE('',#421,#420,#33,.T.);
#360=EDGE_CURVE('',#429,#421,#532,.T.);
#361=EDGE_CURVE('',#430,#422,#533,.T.);
#362=EDGE_CURVE('',#431,#423,#534,.T.);
#363=EDGE_CURVE('',#423,#422,#34,.T.);
#364=EDGE_CURVE('',#432,#424,#535,.T.);
#365=EDGE_CURVE('',#433,#424,#35,.T.);
#366=EDGE_CURVE('',#425,#433,#536,.T.);
#367=EDGE_CURVE('',#445,#417,#537,.T.);
#368=EDGE_CURVE('',#446,#415,#538,.T.);
#369=EDGE_CURVE('',#446,#445,#539,.T.);
#370=EDGE_CURVE('',#447,#416,#540,.T.);
#371=EDGE_CURVE('',#446,#447,#541,.T.);
#372=EDGE_CURVE('',#448,#418,#542,.T.);
#373=EDGE_CURVE('',#447,#448,#543,.T.);
#374=EDGE_CURVE('',#445,#448,#544,.T.);
#375=VERTEX_POINT('',#1120);
#376=VERTEX_POINT('',#1121);
#377=VERTEX_POINT('',#1123);
#378=VERTEX_POINT('',#1125);
#379=VERTEX_POINT('',#1128);
#380=VERTEX_POINT('',#1129);
#381=VERTEX_POINT('',#1131);
#382=VERTEX_POINT('',#1133);
#383=VERTEX_POINT('',#1135);
#384=VERTEX_POINT('',#1137);
#385=VERTEX_POINT('',#1141);
#386=VERTEX_POINT('',#1142);
#387=VERTEX_POINT('',#1144);
#388=VERTEX_POINT('',#1146);
#389=VERTEX_POINT('',#1149);
#390=VERTEX_POINT('',#1150);
#391=VERTEX_POINT('',#1152);
#392=VERTEX_POINT('',#1154);
#393=VERTEX_POINT('',#1156);
#394=VERTEX_POINT('',#1158);
#395=VERTEX_POINT('',#1162);
#396=VERTEX_POINT('',#1163);
#397=VERTEX_POINT('',#1165);
#398=VERTEX_POINT('',#1167);
#399=VERTEX_POINT('',#1173);
#400=VERTEX_POINT('',#1174);
#401=VERTEX_POINT('',#1176);
#402=VERTEX_POINT('',#1178);
#403=VERTEX_POINT('',#1184);
#404=VERTEX_POINT('',#1185);
#405=VERTEX_POINT('',#1187);
#406=VERTEX_POINT('',#1189);
#407=VERTEX_POINT('',#1193);
#408=VERTEX_POINT('',#1195);
#409=VERTEX_POINT('',#1199);
#410=VERTEX_POINT('',#1201);
#411=VERTEX_POINT('',#1208);
#412=VERTEX_POINT('',#1209);
#413=VERTEX_POINT('',#1211);
#414=VERTEX_POINT('',#1213);
#415=VERTEX_POINT('',#1216);
#416=VERTEX_POINT('',#1217);
#417=VERTEX_POINT('',#1219);
#418=VERTEX_POINT('',#1221);
#419=VERTEX_POINT('',#1225);
#420=VERTEX_POINT('',#1227);
#421=VERTEX_POINT('',#1231);
#422=VERTEX_POINT('',#1233);
#423=VERTEX_POINT('',#1237);
#424=VERTEX_POINT('',#1239);
#425=VERTEX_POINT('',#1243);
#426=VERTEX_POINT('',#1245);
#427=VERTEX_POINT('',#1247);
#428=VERTEX_POINT('',#1250);
#429=VERTEX_POINT('',#1252);
#430=VERTEX_POINT('',#1255);
#431=VERTEX_POINT('',#1257);
#432=VERTEX_POINT('',#1260);
#433=VERTEX_POINT('',#1264);
#434=VERTEX_POINT('',#1266);
#435=VERTEX_POINT('',#1270);
#436=VERTEX_POINT('',#1271);
#437=VERTEX_POINT('',#1273);
#438=VERTEX_POINT('',#1276);
#439=VERTEX_POINT('',#1280);
#440=VERTEX_POINT('',#1281);
#441=VERTEX_POINT('',#1286);
#442=VERTEX_POINT('',#1288);
#443=VERTEX_POINT('',#1292);
#444=VERTEX_POINT('',#1329);
#445=VERTEX_POINT('',#1332);
#446=VERTEX_POINT('',#1334);
#447=VERTEX_POINT('',#1338);
#448=VERTEX_POINT('',#1342);
#449=LINE('',#1119,#545);
#450=LINE('',#1122,#546);
#451=LINE('',#1124,#547);
#452=LINE('',#1126,#548);
#453=LINE('',#1127,#549);
#454=LINE('',#1130,#550);
#455=LINE('',#1132,#551);
#456=LINE('',#1134,#552);
#457=LINE('',#1138,#553);
#458=LINE('',#1140,#554);
#459=LINE('',#1143,#555);
#460=LINE('',#1145,#556);
#461=LINE('',#1147,#557);
#462=LINE('',#1148,#558);
#463=LINE('',#1151,#559);
#464=LINE('',#1153,#560);
#465=LINE('',#1155,#561);
#466=LINE('',#1157,#562);
#467=LINE('',#1159,#563);
#468=LINE('',#1161,#564);
#469=LINE('',#1164,#565);
#470=LINE('',#1166,#566);
#471=LINE('',#1168,#567);
#472=LINE('',#1169,#568);
#473=LINE('',#1170,#569);
#474=LINE('',#1172,#570);
#475=LINE('',#1175,#571);
#476=LINE('',#1177,#572);
#477=LINE('',#1179,#573);
#478=LINE('',#1180,#574);
#479=LINE('',#1181,#575);
#480=LINE('',#1183,#576);
#481=LINE('',#1186,#577);
#482=LINE('',#1188,#578);
#483=LINE('',#1190,#579);
#484=LINE('',#1192,#580);
#485=LINE('',#1194,#581);
#486=LINE('',#1196,#582);
#487=LINE('',#1198,#583);
#488=LINE('',#1200,#584);
#489=LINE('',#1202,#585);
#490=LINE('',#1204,#586);
#491=LINE('',#1205,#587);
#492=LINE('',#1207,#588);
#493=LINE('',#1210,#589);
#494=LINE('',#1212,#590);
#495=LINE('',#1214,#591);
#496=LINE('',#1215,#592);
#497=LINE('',#1218,#593);
#498=LINE('',#1220,#594);
#499=LINE('',#1222,#595);
#500=LINE('',#1224,#596);
#501=LINE('',#1228,#597);
#502=LINE('',#1230,#598);
#503=LINE('',#1234,#599);
#504=LINE('',#1236,#600);
#505=LINE('',#1240,#601);
#506=LINE('',#1242,#602);
#507=LINE('',#1244,#603);
#508=LINE('',#1248,#604);
#509=LINE('',#1249,#605);
#510=LINE('',#1253,#606);
#511=LINE('',#1254,#607);
#512=LINE('',#1258,#608);
#513=LINE('',#1259,#609);
#514=LINE('',#1263,#610);
#515=LINE('',#1267,#611);
#516=LINE('',#1269,#612);
#517=LINE('',#1274,#613);
#518=LINE('',#1275,#614);
#519=LINE('',#1279,#615);
#520=LINE('',#1282,#616);
#521=LINE('',#1283,#617);
#522=LINE('',#1287,#618);
#523=LINE('',#1289,#619);
#524=LINE('',#1291,#620);
#525=LINE('',#1293,#621);
#526=LINE('',#1295,#622);
#527=LINE('',#1298,#623);
#528=LINE('',#1300,#624);
#529=LINE('',#1305,#625);
#530=LINE('',#1307,#626);
#531=LINE('',#1311,#627);
#532=LINE('',#1313,#628);
#533=LINE('',#1317,#629);
#534=LINE('',#1319,#630);
#535=LINE('',#1323,#631);
#536=LINE('',#1325,#632);
#537=LINE('',#1331,#633);
#538=LINE('',#1333,#634);
#539=LINE('',#1335,#635);
#540=LINE('',#1337,#636);
#541=LINE('',#1339,#637);
#542=LINE('',#1341,#638);
#543=LINE('',#1343,#639);
#544=LINE('',#1345,#640);
#545=VECTOR('',#903,1.);
#546=VECTOR('',#904,1.);
#547=VECTOR('',#905,1.);
#548=VECTOR('',#906,1.);
#549=VECTOR('',#907,1.);
#550=VECTOR('',#908,1.);
#551=VECTOR('',#909,1.);
#552=VECTOR('',#910,1.);
#553=VECTOR('',#913,1.);
#554=VECTOR('',#916,1.);
#555=VECTOR('',#917,1.);
#556=VECTOR('',#918,1.);
#557=VECTOR('',#919,1.);
#558=VECTOR('',#920,1.);
#559=VECTOR('',#921,1.);
#560=VECTOR('',#922,1.);
#561=VECTOR('',#923,1.);
#562=VECTOR('',#924,1.);
#563=VECTOR('',#925,1.);
#564=VECTOR('',#928,1.);
#565=VECTOR('',#929,1.);
#566=VECTOR('',#930,1.);
#567=VECTOR('',#931,1.);
#568=VECTOR('',#932,1.);
#569=VECTOR('',#933,1.);
#570=VECTOR('',#936,1.);
#571=VECTOR('',#937,1.);
#572=VECTOR('',#938,1.);
#573=VECTOR('',#939,1.);
#574=VECTOR('',#940,1.);
#575=VECTOR('',#941,1.);
#576=VECTOR('',#944,1.);
#577=VECTOR('',#945,1.);
#578=VECTOR('',#946,1.);
#579=VECTOR('',#947,1.);
#580=VECTOR('',#950,1.);
#581=VECTOR('',#951,1.);
#582=VECTOR('',#952,1.);
#583=VECTOR('',#955,1.);
#584=VECTOR('',#956,1.);
#585=VECTOR('',#957,1.);
#586=VECTOR('',#960,1.);
#587=VECTOR('',#961,1.);
#588=VECTOR('',#964,1.);
#589=VECTOR('',#965,1.);
#590=VECTOR('',#966,1.);
#591=VECTOR('',#967,1.);
#592=VECTOR('',#968,1.);
#593=VECTOR('',#969,1.);
#594=VECTOR('',#970,1.);
#595=VECTOR('',#971,1.);
#596=VECTOR('',#974,1.);
#597=VECTOR('',#977,1.);
#598=VECTOR('',#980,1.);
#599=VECTOR('',#983,1.);
#600=VECTOR('',#986,1.);
#601=VECTOR('',#989,1.);
#602=VECTOR('',#992,1.);
#603=VECTOR('',#993,1.);
#604=VECTOR('',#996,1.);
#605=VECTOR('',#997,1.);
#606=VECTOR('',#1000,1.);
#607=VECTOR('',#1001,1.);
#608=VECTOR('',#1004,1.);
#609=VECTOR('',#1005,1.);
#610=VECTOR('',#1010,1.);
#611=VECTOR('',#1013,1.);
#612=VECTOR('',#1016,1.);
#613=VECTOR('',#1019,1.);
#614=VECTOR('',#1020,1.);
#615=VECTOR('',#1025,1.);
#616=VECTOR('',#1026,1.);
#617=VECTOR('',#1027,1.);
#618=VECTOR('',#1032,1.);
#619=VECTOR('',#1033,1.);
#620=VECTOR('',#1036,1.);
#621=VECTOR('',#1037,1.);
#622=VECTOR('',#1040,1.);
#623=VECTOR('',#1045,1.);
#624=VECTOR('',#1048,1.);
#625=VECTOR('',#1057,1.);
#626=VECTOR('',#1060,1.);
#627=VECTOR('',#1067,1.);
#628=VECTOR('',#1070,1.);
#629=VECTOR('',#1077,1.);
#630=VECTOR('',#1080,1.);
#631=VECTOR('',#1087,1.);
#632=VECTOR('',#1090,1.);
#633=VECTOR('',#1099,1.);
#634=VECTOR('',#1100,1.);
#635=VECTOR('',#1101,1.);
#636=VECTOR('',#1104,1.);
#637=VECTOR('',#1105,1.);
#638=VECTOR('',#1108,1.);
#639=VECTOR('',#1109,1.);
#640=VECTOR('',#1112,1.);
#641=EDGE_LOOP('',(#36,#37,#38,#39));
#642=EDGE_LOOP('',(#40,#41,#42,#43,#44,#45));
#643=EDGE_LOOP('',(#46,#47,#48,#49));
#644=EDGE_LOOP('',(#50,#51,#52,#53,#54,#55));
#645=EDGE_LOOP('',(#56,#57,#58,#59));
#646=EDGE_LOOP('',(#60,#61,#62,#63));
#647=EDGE_LOOP('',(#64,#65,#66,#67));
#648=EDGE_LOOP('',(#68,#69,#70,#71));
#649=EDGE_LOOP('',(#72,#73,#74,#75));
#650=EDGE_LOOP('',(#76,#77,#78,#79));
#651=EDGE_LOOP('',(#80,#81,#82,#83));
#652=EDGE_LOOP('',(#84,#85,#86,#87));
#653=EDGE_LOOP('',(#88,#89,#90,#91));
#654=EDGE_LOOP('',(#92,#93,#94,#95));
#655=EDGE_LOOP('',(#96,#97,#98,#99));
#656=EDGE_LOOP('',(#100,#101,#102,#103));
#657=EDGE_LOOP('',(#104,#105,#106,#107));
#658=EDGE_LOOP('',(#108,#109,#110,#111,#112,#113,#114,#115,#116,#117,#118,#119,#120,#121,#122,#123));
#659=EDGE_LOOP('',(#124,#125,#126,#127));
#660=EDGE_LOOP('',(#128,#129,#130,#131,#132,#133));
#661=EDGE_LOOP('',(#134,#135,#136,#137));
#662=EDGE_LOOP('',(#138));
#663=EDGE_LOOP('',(#139,#140,#141,#142));
#664=EDGE_LOOP('',(#143,#144,#145,#146));
#665=EDGE_LOOP('',(#147,#148,#149,#150));
#666=EDGE_LOOP('',(#151,#152,#153,#154));
#667=EDGE_LOOP('',(#155,#156,#157,#158,#159));
#668=EDGE_LOOP('',(#160,#161,#162,#163,#164));
#669=EDGE_LOOP('',(#165,#166));
#670=EDGE_LOOP('',(#167));
#671=EDGE_LOOP('',(#168,#169,#170,#171,#172,#173));
#672=EDGE_LOOP('',(#174,#175,#176,#177));
#673=EDGE_LOOP('',(#178,#179,#180,#181));
#674=EDGE_LOOP('',(#182,#183,#184,#185));
#675=EDGE_LOOP('',(#186,#187,#188,#189));
#676=EDGE_LOOP('',(#190,#191,#192,#193));
#677=EDGE_LOOP('',(#194,#195,#196,#197));
#678=EDGE_LOOP('',(#198,#199,#200,#201));
#679=EDGE_LOOP('',(#202,#203,#204,#205));
#680=EDGE_LOOP('',(#206,#207,#208,#209));
#681=EDGE_LOOP('',(#210,#211,#212,#213));
#682=EDGE_LOOP('',(#214,#215,#216,#217));
#683=EDGE_LOOP('',(#218,#219,#220,#221));
#684=EDGE_LOOP('',(#222,#223,#224,#225,#226,#227,#228,#229));
#685=EDGE_LOOP('',(#230,#231,#232,#233));
#686=EDGE_LOOP('',(#234,#235,#236,#237));
#687=EDGE_LOOP('',(#238,#239,#240,#241));
#688=EDGE_LOOP('',(#242,#243,#244,#245));
#689=EDGE_LOOP('',(#246,#247,#248,#249));
#690=EDGE_LOOP('',(#250,#251,#252,#253));
#691=EDGE_LOOP('',(#254,#255,#256,#257));
#692=EDGE_LOOP('',(#258,#259,#260,#261));
#693=FACE_BOUND('',#641,.T.);
#694=FACE_BOUND('',#642,.T.);
#695=FACE_BOUND('',#643,.T.);
#696=FACE_BOUND('',#644,.T.);
#697=FACE_BOUND('',#645,.T.);
#698=FACE_BOUND('',#646,.T.);
#699=FACE_BOUND('',#647,.T.);
#700=FACE_BOUND('',#648,.T.);
#701=FACE_BOUND('',#649,.T.);
#702=FACE_BOUND('',#650,.T.);
#703=FACE_BOUND('',#651,.T.);
#704=FACE_BOUND('',#652,.T.);
#705=FACE_BOUND('',#653,.T.);
#706=FACE_BOUND('',#654,.T.);
#707=FACE_BOUND('',#655,.T.);
#708=FACE_BOUND('',#656,.T.);
#709=FACE_BOUND('',#657,.T.);
#710=FACE_BOUND('',#658,.T.);
#711=FACE_BOUND('',#659,.T.);
#712=FACE_BOUND('',#660,.T.);
#713=FACE_BOUND('',#661,.T.);
#714=FACE_BOUND('',#662,.T.);
#715=FACE_BOUND('',#663,.T.);
#716=FACE_BOUND('',#664,.T.);
#717=FACE_BOUND('',#665,.T.);
#718=FACE_BOUND('',#666,.T.);
#719=FACE_BOUND('',#667,.T.);
#720=FACE_BOUND('',#668,.T.);
#721=FACE_BOUND('',#669,.T.);
#722=FACE_BOUND('',#670,.T.);
#723=FACE_BOUND('',#671,.T.);
#724=FACE_BOUND('',#672,.T.);
#725=FACE_BOUND('',#673,.T.);
#726=FACE_BOUND('',#674,.T.);
#727=FACE_BOUND('',#675,.T.);
#728=FACE_BOUND('',#676,.T.);
#729=FACE_BOUND('',#677,.T.);
#730=FACE_BOUND('',#678,.T.);
#731=FACE_BOUND('',#679,.T.);
#732=FACE_BOUND('',#680,.T.);
#733=FACE_BOUND('',#681,.T.);
#734=FACE_BOUND('',#682,.T.);
#735=FACE_BOUND('',#683,.T.);
#736=FACE_BOUND('',#12,.T.);
#737=FACE_BOUND('',#684,.T.);
#738=FACE_BOUND('',#685,.T.);
#739=FACE_BOUND('',#686,.T.);
#740=FACE_BOUND('',#687,.T.);
#741=FACE_BOUND('',#688,.T.);
#742=FACE_BOUND('',#689,.T.);
#743=FACE_BOUND('',#690,.T.);
#744=FACE_BOUND('',#691,.T.);
#745=FACE_BOUND('',#692,.T.);
#746=PLANE('',#839);
#747=PLANE('',#841);
#748=PLANE('',#842);
#749=PLANE('',#843);
#750=PLANE('',#844);
#751=PLANE('',#845);
#752=PLANE('',#846);
#753=PLANE('',#847);
#754=PLANE('',#848);
#755=PLANE('',#849);
#756=PLANE('',#851);
#757=PLANE('',#853);
#758=PLANE('',#855);
#759=PLANE('',#860);
#760=PLANE('',#862);
#761=PLANE('',#865);
#762=PLANE('',#866);
#763=PLANE('',#868);
#764=PLANE('',#869);
#765=PLANE('',#870);
#766=PLANE('',#871);
#767=PLANE('',#872);
#768=PLANE('',#873);
#769=PLANE('',#878);
#770=PLANE('',#879);
#771=PLANE('',#882);
#772=PLANE('',#883);
#773=PLANE('',#884);
#774=PLANE('',#885);
#775=PLANE('',#890);
#776=PLANE('',#891);
#777=PLANE('',#893);
#778=PLANE('',#894);
#779=PLANE('',#895);
#780=PLANE('',#896);
#781=PLANE('',#897);
#782=PLANE('',#898);
#783=ADVANCED_FACE('',(#693,#694),#746,.T.);
#784=ADVANCED_FACE('',(#695,#696),#747,.F.);
#785=ADVANCED_FACE('',(#697,#698),#748,.F.);
#786=ADVANCED_FACE('',(#699,#700),#749,.T.);
#787=ADVANCED_FACE('',(#701),#750,.T.);
#788=ADVANCED_FACE('',(#702),#751,.F.);
#789=ADVANCED_FACE('',(#703),#752,.F.);
#790=ADVANCED_FACE('',(#704),#753,.T.);
#791=ADVANCED_FACE('',(#705,#706),#754,.T.);
#792=ADVANCED_FACE('',(#707),#755,.T.);
#793=ADVANCED_FACE('',(#708),#756,.T.);
#794=ADVANCED_FACE('',(#709),#757,.T.);
#795=ADVANCED_FACE('',(#710),#758,.F.);
#796=ADVANCED_FACE('',(#711),#759,.T.);
#797=ADVANCED_FACE('',(#712),#760,.F.);
#798=ADVANCED_FACE('',(#713),#761,.T.);
#799=ADVANCED_FACE('',(#714,#715),#762,.F.);
#800=ADVANCED_FACE('',(#716),#763,.F.);
#801=ADVANCED_FACE('',(#717),#764,.T.);
#802=ADVANCED_FACE('',(#718),#765,.F.);
#803=ADVANCED_FACE('',(#719),#766,.T.);
#804=ADVANCED_FACE('',(#720),#767,.T.);
#805=ADVANCED_FACE('',(#721),#768,.F.);
#806=ADVANCED_FACE('',(#722,#723),#14,.F.);
#807=ADVANCED_FACE('',(#724),#15,.T.);
#808=ADVANCED_FACE('',(#725),#769,.F.);
#809=ADVANCED_FACE('',(#726),#770,.F.);
#810=ADVANCED_FACE('',(#727),#16,.T.);
#811=ADVANCED_FACE('',(#728),#771,.T.);
#812=ADVANCED_FACE('',(#729),#772,.T.);
#813=ADVANCED_FACE('',(#730),#773,.F.);
#814=ADVANCED_FACE('',(#731),#774,.F.);
#815=ADVANCED_FACE('',(#732),#17,.T.);
#816=ADVANCED_FACE('',(#733),#18,.T.);
#817=ADVANCED_FACE('',(#734),#775,.F.);
#818=ADVANCED_FACE('',(#735),#776,.F.);
#819=ADVANCED_FACE('',(#736,#737),#13,.T.);
#820=ADVANCED_FACE('',(#738),#777,.T.);
#821=ADVANCED_FACE('',(#739),#778,.F.);
#822=ADVANCED_FACE('',(#740),#779,.F.);
#823=ADVANCED_FACE('',(#741),#780,.T.);
#824=ADVANCED_FACE('',(#742,#743),#781,.T.);
#825=ADVANCED_FACE('',(#744,#745),#782,.T.);
#826=CLOSED_SHELL('',(#783,#784,#785,#786,#787,#788,#789,#790,#791,#792,#793,#794,#795,#796,#797,#798,#799,#800,#801,#802,#803,#804,#805,#806,#807,#808,#809,#810,#811,#812,#813,#814,#815,#816,#817,#818,#819,#820,#821,#822,#823,#824,#825));
#827=STYLED_ITEM('',(#828),#835);
#828=PRESENTATION_STYLE_ASSIGNMENT((#829));
#829=SURFACE_STYLE_USAGE(.BOTH.,#830);
#830=SURFACE_SIDE_STYLE('',(#831));
#831=SURFACE_STYLE_FILL_AREA(#832);
#832=FILL_AREA_STYLE('',(#833));
#833=FILL_AREA_STYLE_COLOUR('',#834);
#834=COLOUR_RGB('',0.615686274509804,0.811764705882353,0.929411764705882);
#835=MANIFOLD_SOLID_BREP('Part 1',#826);
#836=SHAPE_DEFINITION_REPRESENTATION(#1354,#837);
#837=SHAPE_REPRESENTATION('Part 1',(#838),#1349);
#838=AXIS2_PLACEMENT_3D('',#1117,#899,#900);
#839=AXIS2_PLACEMENT_3D('',#1118,#901,#902);
#840=AXIS2_PLACEMENT_3D('',#1136,#911,#912);
#841=AXIS2_PLACEMENT_3D('',#1139,#914,#915);
#842=AXIS2_PLACEMENT_3D('',#1160,#926,#927);
#843=AXIS2_PLACEMENT_3D('',#1171,#934,#935);
#844=AXIS2_PLACEMENT_3D('',#1182,#942,#943);
#845=AXIS2_PLACEMENT_3D('',#1191,#948,#949);
#846=AXIS2_PLACEMENT_3D('',#1197,#953,#954);
#847=AXIS2_PLACEMENT_3D('',#1203,#958,#959);
#848=AXIS2_PLACEMENT_3D('',#1206,#962,#963);
#849=AXIS2_PLACEMENT_3D('',#1223,#972,#973);
#850=AXIS2_PLACEMENT_3D('',#1226,#975,#976);
#851=AXIS2_PLACEMENT_3D('',#1229,#978,#979);
#852=AXIS2_PLACEMENT_3D('',#1232,#981,#982);
#853=AXIS2_PLACEMENT_3D('',#1235,#984,#985);
#854=AXIS2_PLACEMENT_3D('',#1238,#987,#988);
#855=AXIS2_PLACEMENT_3D('',#1241,#990,#991);
#856=AXIS2_PLACEMENT_3D('',#1246,#994,#995);
#857=AXIS2_PLACEMENT_3D('',#1251,#998,#999);
#858=AXIS2_PLACEMENT_3D('',#1256,#1002,#1003);
#859=AXIS2_PLACEMENT_3D('',#1261,#1006,#1007);
#860=AXIS2_PLACEMENT_3D('',#1262,#1008,#1009);
#861=AXIS2_PLACEMENT_3D('',#1265,#1011,#1012);
#862=AXIS2_PLACEMENT_3D('',#1268,#1014,#1015);
#863=AXIS2_PLACEMENT_3D('',#1272,#1017,#1018);
#864=AXIS2_PLACEMENT_3D('',#1277,#1021,#1022);
#865=AXIS2_PLACEMENT_3D('',#1278,#1023,#1024);
#866=AXIS2_PLACEMENT_3D('',#1284,#1028,#1029);
#867=AXIS2_PLACEMENT_3D('',#1285,#1030,#1031);
#868=AXIS2_PLACEMENT_3D('',#1290,#1034,#1035);
#869=AXIS2_PLACEMENT_3D('',#1294,#1038,#1039);
#870=AXIS2_PLACEMENT_3D('',#1296,#1041,#1042);
#871=AXIS2_PLACEMENT_3D('',#1297,#1043,#1044);
#872=AXIS2_PLACEMENT_3D('',#1299,#1046,#1047);
#873=AXIS2_PLACEMENT_3D('',#1301,#1049,#1050);
#874=AXIS2_PLACEMENT_3D('',#1302,#1051,#1052);
#875=AXIS2_PLACEMENT_3D('',#1303,#1053,#1054);
#876=AXIS2_PLACEMENT_3D('',#1304,#1055,#1056);
#877=AXIS2_PLACEMENT_3D('',#1306,#1058,#1059);
#878=AXIS2_PLACEMENT_3D('',#1308,#1061,#1062);
#879=AXIS2_PLACEMENT_3D('',#1309,#1063,#1064);
#880=AXIS2_PLACEMENT_3D('',#1310,#1065,#1066);
#881=AXIS2_PLACEMENT_3D('',#1312,#1068,#1069);
#882=AXIS2_PLACEMENT_3D('',#1314,#1071,#1072);
#883=AXIS2_PLACEMENT_3D('',#1315,#1073,#1074);
#884=AXIS2_PLACEMENT_3D('',#1316,#1075,#1076);
#885=AXIS2_PLACEMENT_3D('',#1318,#1078,#1079);
#886=AXIS2_PLACEMENT_3D('',#1320,#1081,#1082);
#887=AXIS2_PLACEMENT_3D('',#1321,#1083,#1084);
#888=AXIS2_PLACEMENT_3D('',#1322,#1085,#1086);
#889=AXIS2_PLACEMENT_3D('',#1324,#1088,#1089);
#890=AXIS2_PLACEMENT_3D('',#1326,#1091,#1092);
#891=AXIS2_PLACEMENT_3D('',#1327,#1093,#1094);
#892=AXIS2_PLACEMENT_3D('',#1328,#1095,#1096);
#893=AXIS2_PLACEMENT_3D('',#1330,#1097,#1098);
#894=AXIS2_PLACEMENT_3D('',#1336,#1102,#1103);
#895=AXIS2_PLACEMENT_3D('',#1340,#1106,#1107);
#896=AXIS2_PLACEMENT_3D('',#1344,#1110,#1111);
#897=AXIS2_PLACEMENT_3D('',#1346,#1113,#1114);
#898=AXIS2_PLACEMENT_3D('',#1347,#1115,#1116);
#899=DIRECTION('',(0.,0.,1.));
#900=DIRECTION('',(1.,0.,0.));
#901=DIRECTION('',(-1.,0.,0.));
#902=DIRECTION('',(0.,0.,1.));
#903=DIRECTION('',(0.,-1.,0.));
#904=DIRECTION('',(0.,0.,1.));
#905=DIRECTION('',(0.,-1.,0.));
#906=DIRECTION('',(0.,0.,1.));
#907=DIRECTION('',(0.,0.,-1.));
#908=DIRECTION('',(0.,1.,0.));
#909=DIRECTION('',(0.,0.,-1.));
#910=DIRECTION('',(0.,-0.997564050259824,-0.0697564737441252));
#911=DIRECTION('',(-1.,0.,0.));
#912=DIRECTION('',(0.,0.,1.));
#913=DIRECTION('',(0.,-0.997564050259824,0.0697564737441257));
#914=DIRECTION('',(-1.,0.,0.));
#915=DIRECTION('',(0.,0.,1.));
#916=DIRECTION('',(0.,-1.,0.));
#917=DIRECTION('',(0.,0.,1.));
#918=DIRECTION('',(0.,-1.,0.));
#919=DIRECTION('',(0.,0.,1.));
#920=DIRECTION('',(0.,1.,0.));
#921=DIRECTION('',(0.,0.,-1.));
#922=DIRECTION('',(0.,-0.997564050259824,0.0697564737441257));
#923=DIRECTION('',(-1.56105599637958E-16,1.,0.));
#924=DIRECTION('',(0.,-0.997564050259824,-0.0697564737441252));
#925=DIRECTION('',(0.,0.,-1.));
#926=DIRECTION('',(1.56105599637958E-16,-1.,0.));
#927=DIRECTION('',(1.,1.56105599637958E-16,0.));
#928=DIRECTION('',(0.,0.,1.));
#929=DIRECTION('',(1.,0.,0.));
#930=DIRECTION('',(0.,0.,1.));
#931=DIRECTION('',(1.,0.,0.));
#932=DIRECTION('',(-1.,-1.56105599637958E-16,0.));
#933=DIRECTION('',(1.,0.,0.));
#934=DIRECTION('',(1.56105599637958E-16,-1.,0.));
#935=DIRECTION('',(1.,1.56105599637958E-16,0.));
#936=DIRECTION('',(0.,0.,1.));
#937=DIRECTION('',(1.,0.,0.));
#938=DIRECTION('',(0.,0.,1.));
#939=DIRECTION('',(1.,0.,0.));
#940=DIRECTION('',(-1.,-1.56105599637958E-16,0.));
#941=DIRECTION('',(1.,0.,0.));
#942=DIRECTION('',(-1.,1.68113722687031E-16,0.));
#943=DIRECTION('',(-1.68113722687031E-16,-1.,0.));
#944=DIRECTION('',(0.,0.,1.));
#945=DIRECTION('',(1.68113722687031E-16,1.,0.));
#946=DIRECTION('',(0.,0.,1.));
#947=DIRECTION('',(-1.68113722687031E-16,-1.,0.));
#948=DIRECTION('',(0.,-1.,0.));
#949=DIRECTION('',(0.,0.,-1.));
#950=DIRECTION('',(-1.,0.,0.));
#951=DIRECTION('',(0.,0.,1.));
#952=DIRECTION('',(1.,0.,0.));
#953=DIRECTION('',(-1.,1.68113722687031E-16,0.));
#954=DIRECTION('',(-1.68113722687031E-16,-1.,0.));
#955=DIRECTION('',(1.68113722687031E-16,1.,0.));
#956=DIRECTION('',(0.,0.,1.));
#957=DIRECTION('',(-1.68113722687031E-16,-1.,0.));
#958=DIRECTION('',(0.,-1.,0.));
#959=DIRECTION('',(0.,0.,-1.));
#960=DIRECTION('',(-1.,0.,0.));
#961=DIRECTION('',(1.,0.,0.));
#962=DIRECTION('',(0.,0.,1.));
#963=DIRECTION('',(1.,0.,0.));
#964=DIRECTION('',(-1.,-1.56105599637958E-16,0.));
#965=DIRECTION('',(0.,1.,0.));
#966=DIRECTION('',(-1.,-1.56105599637958E-16,0.));
#967=DIRECTION('',(0.,1.,0.));
#968=DIRECTION('',(-1.61887288513438E-16,-1.,0.));
#969=DIRECTION('',(1.,0.,0.));
#970=DIRECTION('',(-1.61887288513438E-16,-1.,0.));
#971=DIRECTION('',(1.,0.,0.));
#972=DIRECTION('',(0.,0.,1.));
#973=DIRECTION('',(1.,0.,0.));
#974=DIRECTION('',(0.,1.,0.));
#975=DIRECTION('',(0.,0.,-1.));
#976=DIRECTION('',(-1.,0.,0.));
#977=DIRECTION('',(0.,1.,0.));
#978=DIRECTION('',(0.,0.,1.));
#979=DIRECTION('',(1.,0.,0.));
#980=DIRECTION('',(-1.,0.,0.));
#981=DIRECTION('',(0.,0.,-1.));
#982=DIRECTION('',(-1.,0.,0.));
#983=DIRECTION('',(-1.,0.,0.));
#984=DIRECTION('',(0.,0.,1.));
#985=DIRECTION('',(1.,0.,0.));
#986=DIRECTION('',(0.,-1.,0.));
#987=DIRECTION('',(0.,0.,-1.));
#988=DIRECTION('',(-1.,0.,0.));
#989=DIRECTION('',(-1.08729929890695E-16,1.,0.));
#990=DIRECTION('',(0.,0.,1.));
#991=DIRECTION('',(1.,0.,0.));
#992=DIRECTION('',(1.,2.99007307199411E-16,0.));
#993=DIRECTION('',(-1.,-1.90277377308716E-16,0.));
#994=DIRECTION('',(0.,0.,1.));
#995=DIRECTION('',(1.,0.,0.));
#996=DIRECTION('',(0.,-1.,0.));
#997=DIRECTION('',(0.,-1.,0.));
#998=DIRECTION('',(0.,0.,1.));
#999=DIRECTION('',(1.,0.,0.));
#1000=DIRECTION('',(1.,0.,0.));
#1001=DIRECTION('',(1.,0.,0.));
#1002=DIRECTION('',(0.,0.,1.));
#1003=DIRECTION('',(1.,0.,0.));
#1004=DIRECTION('',(0.,1.,0.));
#1005=DIRECTION('',(1.08729929890695E-16,-1.,0.));
#1006=DIRECTION('',(0.,0.,1.));
#1007=DIRECTION('',(1.,0.,0.));
#1008=DIRECTION('',(0.,0.,1.));
#1009=DIRECTION('',(1.,0.,0.));
#1010=DIRECTION('',(-1.,-2.99007307199411E-16,0.));
#1011=DIRECTION('',(0.,0.,-1.));
#1012=DIRECTION('',(-1.,0.,0.));
#1013=DIRECTION('',(1.,1.90277377308716E-16,0.));
#1014=DIRECTION('',(-0.0348994967025007,-5.44800685980681E-18,-0.999390827019096));
#1015=DIRECTION('',(-0.999390827019096,0.,0.0348994967025007));
#1016=DIRECTION('',(0.,1.,-5.45132766132814E-18));
#1017=DIRECTION('',(-0.0348994967025007,-5.44800685980681E-18,-0.999390827019096));
#1018=DIRECTION('',(-0.999390827019096,1.90248591740772E-19,0.0348994967025007));
#1019=DIRECTION('',(0.89420899419943,-0.446559270986237,-0.0312264661638856));
#1020=DIRECTION('',(-0.894208994199431,-0.446559270986234,0.0312264661638857));
#1021=DIRECTION('',(-0.0348994967025007,-5.44800685980681E-18,-0.999390827019096));
#1022=DIRECTION('',(-0.999390827019096,1.90248591740772E-19,0.0348994967025007));
#1023=DIRECTION('',(1.56105599637958E-16,-1.,0.));
#1024=DIRECTION('',(1.,1.56105599637958E-16,0.));
#1025=DIRECTION('',(-1.,-1.56105599637958E-16,0.));
#1026=DIRECTION('',(0.,0.,-1.));
#1027=DIRECTION('',(0.,0.,-1.));
#1028=DIRECTION('',(-1.,0.,0.));
#1029=DIRECTION('',(0.,0.,1.));
#1030=DIRECTION('',(-1.,0.,0.));
#1031=DIRECTION('',(0.,0.,1.));
#1032=DIRECTION('',(0.,1.,0.));
#1033=DIRECTION('',(0.,0.,-1.));
#1034=DIRECTION('',(1.56105599637958E-16,-1.,0.));
#1035=DIRECTION('',(1.,1.56105599637958E-16,0.));
#1036=DIRECTION('',(-1.,-1.56105599637958E-16,0.));
#1037=DIRECTION('',(0.,0.,-1.));
#1038=DIRECTION('',(-1.,0.,0.));
#1039=DIRECTION('',(0.,0.,1.));
#1040=DIRECTION('',(0.,1.,0.));
#1041=DIRECTION('',(0.,0.,1.));
#1042=DIRECTION('',(1.,0.,0.));
#1043=DIRECTION('',(0.,-0.0697564737441252,0.997564050259824));
#1044=DIRECTION('',(0.,-0.997564050259824,-0.0697564737441252));
#1045=DIRECTION('',(-1.,0.,0.));
#1046=DIRECTION('',(0.,0.0697564737441257,0.997564050259824));
#1047=DIRECTION('',(0.,-0.997564050259824,0.0697564737441257));
#1048=DIRECTION('',(-1.,0.,0.));
#1049=DIRECTION('',(-1.,0.,0.));
#1050=DIRECTION('',(0.,-1.,0.));
#1051=DIRECTION('',(-1.,0.,0.));
#1052=DIRECTION('',(0.,0.,1.));
#1053=DIRECTION('',(-1.,0.,0.));
#1054=DIRECTION('',(0.,0.,1.));
#1055=DIRECTION('',(0.,0.,1.));
#1056=DIRECTION('',(1.,0.,0.));
#1057=DIRECTION('',(0.,0.,1.));
#1058=DIRECTION('',(0.,0.,1.));
#1059=DIRECTION('',(1.,0.,0.));
#1060=DIRECTION('',(0.,0.,1.));
#1061=DIRECTION('',(1.,0.,0.));
#1062=DIRECTION('',(0.,0.,-1.));
#1063=DIRECTION('',(1.90277377308716E-16,-1.,0.));
#1064=DIRECTION('',(1.,1.90277377308716E-16,0.));
#1065=DIRECTION('',(0.,0.,1.));
#1066=DIRECTION('',(1.,0.,0.));
#1067=DIRECTION('',(0.,0.,1.));
#1068=DIRECTION('',(0.,0.,1.));
#1069=DIRECTION('',(1.,0.,0.));
#1070=DIRECTION('',(0.,0.,1.));
#1071=DIRECTION('',(1.,0.,0.));
#1072=DIRECTION('',(0.,0.,-1.));
#1073=DIRECTION('',(0.,1.,0.));
#1074=DIRECTION('',(0.,0.,1.));
#1075=DIRECTION('',(0.,1.,0.));
#1076=DIRECTION('',(0.,0.,1.));
#1077=DIRECTION('',(0.,0.,1.));
#1078=DIRECTION('',(-1.,0.,0.));
#1079=DIRECTION('',(0.,0.,1.));
#1080=DIRECTION('',(0.,0.,1.));
#1081=DIRECTION('',(0.,0.,1.));
#1082=DIRECTION('',(1.,0.,0.));
#1083=DIRECTION('',(0.,0.,1.));
#1084=DIRECTION('',(1.,0.,0.));
#1085=DIRECTION('',(0.,0.,1.));
#1086=DIRECTION('',(1.,0.,0.));
#1087=DIRECTION('',(0.,0.,1.));
#1088=DIRECTION('',(0.,0.,1.));
#1089=DIRECTION('',(1.,0.,0.));
#1090=DIRECTION('',(0.,0.,1.));
#1091=DIRECTION('',(1.,1.08729929890695E-16,0.));
#1092=DIRECTION('',(-1.08729929890695E-16,1.,0.));
#1093=DIRECTION('',(-2.99007307199411E-16,1.,0.));
#1094=DIRECTION('',(-1.,-2.99007307199411E-16,0.));
#1095=DIRECTION('',(0.,0.,-1.));
#1096=DIRECTION('',(-1.,0.,0.));
#1097=DIRECTION('',(0.,-1.,0.));
#1098=DIRECTION('',(0.,0.,-1.));
#1099=DIRECTION('',(0.,0.,1.));
#1100=DIRECTION('',(0.,0.,1.));
#1101=DIRECTION('',(1.,0.,0.));
#1102=DIRECTION('',(-1.,1.61887288513438E-16,0.));
#1103=DIRECTION('',(-1.61887288513438E-16,-1.,0.));
#1104=DIRECTION('',(0.,0.,1.));
#1105=DIRECTION('',(-1.61887288513438E-16,-1.,0.));
#1106=DIRECTION('',(0.,-1.,0.));
#1107=DIRECTION('',(0.,0.,-1.));
#1108=DIRECTION('',(0.,0.,1.));
#1109=DIRECTION('',(1.,0.,0.));
#1110=DIRECTION('',(-1.,1.61887288513438E-16,0.));
#1111=DIRECTION('',(-1.61887288513438E-16,-1.,0.));
#1112=DIRECTION('',(-1.61887288513438E-16,-1.,0.));
#1113=DIRECTION('',(0.,0.,1.));
#1114=DIRECTION('',(1.,0.,0.));
#1115=DIRECTION('',(0.,0.,1.));
#1116=DIRECTION('',(1.,0.,0.));
#1117=CARTESIAN_POINT('',(0.,0.,0.));
#1118=CARTESIAN_POINT('',(0.079375,2.77555756156289E-17,0.0762));
#1119=CARTESIAN_POINT('',(0.079375,1.38777878078145E-17,0.03175));
#1120=CARTESIAN_POINT('',(0.079375,0.003175,0.03175));
#1121=CARTESIAN_POINT('',(0.079375,-0.003175,0.03175));
#1122=CARTESIAN_POINT('',(0.079375,0.003175,-2.000000000002E-06));
#1123=CARTESIAN_POINT('',(0.079375,0.003175,0.0381));
#1124=CARTESIAN_POINT('',(0.079375,1.38777878078145E-17,0.0381));
#1125=CARTESIAN_POINT('',(0.079375,-0.003175,0.0381));
#1126=CARTESIAN_POINT('',(0.079375,-0.003175,-2.000000000002E-06));
#1127=CARTESIAN_POINT('',(0.079375,-0.079375,0.0762));
#1128=CARTESIAN_POINT('',(0.079375,-0.079375,0.06985));
#1129=CARTESIAN_POINT('',(0.079375,-0.079375,0.0150754406980162));
#1130=CARTESIAN_POINT('',(0.079375,2.77555756156289E-17,0.06985));
#1131=CARTESIAN_POINT('',(0.079375,0.079375,0.06985));
#1132=CARTESIAN_POINT('',(0.079375,0.079375,0.0762));
#1133=CARTESIAN_POINT('',(0.079375,0.079375,0.0150754406980162));
#1134=CARTESIAN_POINT('',(0.079375,0.0396875,0.0123002203490081));
#1135=CARTESIAN_POINT('',(0.079375,0.00633453171914989,0.0099679536082752));
#1136=CARTESIAN_POINT('',(0.079375,0.,0.009525));
#1137=CARTESIAN_POINT('',(0.079375,-0.00633453171914989,0.0099679536082752));
#1138=CARTESIAN_POINT('',(0.079375,-0.0396875,0.0123002203490081));
#1139=CARTESIAN_POINT('',(-0.079375,-2.77555756156289E-17,0.0762));
#1140=CARTESIAN_POINT('',(-0.079375,1.38777878078145E-17,0.03175));
#1141=CARTESIAN_POINT('',(-0.079375,0.003175,0.03175));
#1142=CARTESIAN_POINT('',(-0.079375,-0.003175,0.03175));
#1143=CARTESIAN_POINT('',(-0.079375,-0.003175,-2.000000000002E-06));
#1144=CARTESIAN_POINT('',(-0.079375,-0.003175,0.0381));
#1145=CARTESIAN_POINT('',(-0.079375,1.38777878078145E-17,0.0381));
#1146=CARTESIAN_POINT('',(-0.079375,0.003175,0.0381));
#1147=CARTESIAN_POINT('',(-0.079375,0.003175,-2.000000000002E-06));
#1148=CARTESIAN_POINT('',(-0.079375,-2.77555756156289E-17,0.06985));
#1149=CARTESIAN_POINT('',(-0.079375,-0.079375,0.06985));
#1150=CARTESIAN_POINT('',(-0.079375,0.079375,0.06985));
#1151=CARTESIAN_POINT('',(-0.079375,-0.079375,0.0762));
#1152=CARTESIAN_POINT('',(-0.079375,-0.079375,0.0150754406980162));
#1153=CARTESIAN_POINT('',(-0.079375,-0.0396875,0.0123002203490081));
#1154=CARTESIAN_POINT('',(-0.079375,-0.079278205351236,0.0150686721568149));
#1155=CARTESIAN_POINT('',(-0.079375,-0.088902,0.0150686721568149));
#1156=CARTESIAN_POINT('',(-0.079375,0.0792782053512365,0.0150686721568149));
#1157=CARTESIAN_POINT('',(-0.079375,0.0396875,0.0123002203490081));
#1158=CARTESIAN_POINT('',(-0.079375,0.079375,0.0150754406980162));
#1159=CARTESIAN_POINT('',(-0.079375,0.079375,0.0762));
#1160=CARTESIAN_POINT('',(-1.48690583655155E-18,-0.079375,0.0762));
#1161=CARTESIAN_POINT('',(-0.003175,-0.079375,-2.000000000002E-06));
#1162=CARTESIAN_POINT('',(-0.003175,-0.079375,0.03175));
#1163=CARTESIAN_POINT('',(-0.003175,-0.079375,0.0381));
#1164=CARTESIAN_POINT('',(-0.088902,-0.079375,0.03175));
#1165=CARTESIAN_POINT('',(0.003175,-0.079375,0.03175));
#1166=CARTESIAN_POINT('',(0.003175,-0.079375,-2.000000000002E-06));
#1167=CARTESIAN_POINT('',(0.003175,-0.079375,0.0381));
#1168=CARTESIAN_POINT('',(-0.088902,-0.079375,0.0381));
#1169=CARTESIAN_POINT('',(-1.48690583655155E-18,-0.079375,0.06985));
#1170=CARTESIAN_POINT('',(-0.088902,-0.079375,0.0150754406980162));
#1171=CARTESIAN_POINT('',(1.48690583655155E-18,0.079375,0.0762));
#1172=CARTESIAN_POINT('',(0.003175,0.079375,-2.000000000002E-06));
#1173=CARTESIAN_POINT('',(0.003175,0.079375,0.03175));
#1174=CARTESIAN_POINT('',(0.003175,0.079375,0.0381));
#1175=CARTESIAN_POINT('',(-0.088902,0.079375,0.03175));
#1176=CARTESIAN_POINT('',(-0.003175,0.079375,0.03175));
#1177=CARTESIAN_POINT('',(-0.003175,0.079375,-2.000000000002E-06));
#1178=CARTESIAN_POINT('',(-0.003175,0.079375,0.0381));
#1179=CARTESIAN_POINT('',(-0.088902,0.079375,0.0381));
#1180=CARTESIAN_POINT('',(1.48690583655155E-18,0.079375,0.06985));
#1181=CARTESIAN_POINT('',(-0.088902,0.079375,0.0150754406980162));
#1182=CARTESIAN_POINT('',(-0.08255,0.,0.066675));
#1183=CARTESIAN_POINT('',(-0.08255,-0.08255,0.066675));
#1184=CARTESIAN_POINT('',(-0.08255,-0.08255,0.066675));
#1185=CARTESIAN_POINT('',(-0.08255,-0.08255,0.06985));
#1186=CARTESIAN_POINT('',(-0.08255,0.,0.06985));
#1187=CARTESIAN_POINT('',(-0.08255,0.08255,0.06985));
#1188=CARTESIAN_POINT('',(-0.08255,0.08255,0.066675));
#1189=CARTESIAN_POINT('',(-0.08255,0.08255,0.066675));
#1190=CARTESIAN_POINT('',(-0.08255,0.,0.066675));
#1191=CARTESIAN_POINT('',(1.38777878078145E-17,0.08255,0.066675));
#1192=CARTESIAN_POINT('',(1.38777878078145E-17,0.08255,0.06985));
#1193=CARTESIAN_POINT('',(0.08255,0.08255,0.06985));
#1194=CARTESIAN_POINT('',(0.08255,0.08255,0.066675));
#1195=CARTESIAN_POINT('',(0.08255,0.08255,0.066675));
#1196=CARTESIAN_POINT('',(1.38777878078145E-17,0.08255,0.066675));
#1197=CARTESIAN_POINT('',(0.08255,0.,0.066675));
#1198=CARTESIAN_POINT('',(0.08255,0.,0.06985));
#1199=CARTESIAN_POINT('',(0.08255,-0.08255,0.06985));
#1200=CARTESIAN_POINT('',(0.08255,-0.08255,0.066675));
#1201=CARTESIAN_POINT('',(0.08255,-0.08255,0.066675));
#1202=CARTESIAN_POINT('',(0.08255,0.,0.066675));
#1203=CARTESIAN_POINT('',(-1.38777878078145E-17,-0.08255,0.066675));
#1204=CARTESIAN_POINT('',(-1.38777878078145E-17,-0.08255,0.06985));
#1205=CARTESIAN_POINT('',(-1.38777878078145E-17,-0.08255,0.066675));
#1206=CARTESIAN_POINT('',(0.,0.,0.0762));
#1207=CARTESIAN_POINT('',(0.,-0.0889,0.0762));
#1208=CARTESIAN_POINT('',(0.0889,-0.0889,0.0762));
#1209=CARTESIAN_POINT('',(-0.0889,-0.0889,0.0762));
#1210=CARTESIAN_POINT('',(0.0889,2.77555756156289E-17,0.0762));
#1211=CARTESIAN_POINT('',(0.0889,0.0889,0.0762));
#1212=CARTESIAN_POINT('',(0.,0.0889,0.0762));
#1213=CARTESIAN_POINT('',(-0.0889,0.0889,0.0762));
#1214=CARTESIAN_POINT('',(-0.0889,-2.77555756156289E-17,0.0762));
#1215=CARTESIAN_POINT('',(-0.085725,0.,0.0762));
#1216=CARTESIAN_POINT('',(-0.085725,0.085725,0.0762));
#1217=CARTESIAN_POINT('',(-0.085725,-0.085725,0.0762));
#1218=CARTESIAN_POINT('',(2.77555756156289E-17,0.085725,0.0762));
#1219=CARTESIAN_POINT('',(0.085725,0.085725,0.0762));
#1220=CARTESIAN_POINT('',(0.085725,0.,0.0762));
#1221=CARTESIAN_POINT('',(0.085725,-0.085725,0.0762));
#1222=CARTESIAN_POINT('',(-1.38777878078145E-17,-0.085725,0.0762));
#1223=CARTESIAN_POINT('',(-0.088902,1.38777878078145E-17,0.0381));
#1224=CARTESIAN_POINT('',(-0.003175,0.0713977876642581,0.0381));
#1225=CARTESIAN_POINT('',(-0.003175,0.0634205753285162,0.0381));
#1226=CARTESIAN_POINT('',(0.,0.,0.0381));
#1227=CARTESIAN_POINT('',(0.003175,0.0634205753285162,0.0381));
#1228=CARTESIAN_POINT('',(0.003175,0.0713977876642581,0.0381));
#1229=CARTESIAN_POINT('',(-0.088902,1.38777878078145E-17,0.0381));
#1230=CARTESIAN_POINT('',(0.0713977876642581,0.003175,0.0381));
#1231=CARTESIAN_POINT('',(0.0634205753285162,0.003175,0.0381));
#1232=CARTESIAN_POINT('',(0.,0.,0.0381));
#1233=CARTESIAN_POINT('',(0.0634205753285162,-0.003175,0.0381));
#1234=CARTESIAN_POINT('',(0.0713977876642581,-0.003175,0.0381));
#1235=CARTESIAN_POINT('',(-0.088902,1.38777878078145E-17,0.0381));
#1236=CARTESIAN_POINT('',(0.003175,-0.0713977876642581,0.0381));
#1237=CARTESIAN_POINT('',(0.003175,-0.0634205753285162,0.0381));
#1238=CARTESIAN_POINT('',(0.,0.,0.0381));
#1239=CARTESIAN_POINT('',(-0.003175,-0.0634205753285162,0.0381));
#1240=CARTESIAN_POINT('',(-0.003175,-0.0713977876642581,0.0381));
#1241=CARTESIAN_POINT('',(-0.088902,1.38777878078145E-17,0.03175));
#1242=CARTESIAN_POINT('',(-0.0713977876642581,-0.003175,0.03175));
#1243=CARTESIAN_POINT('',(-0.0634205753285162,-0.003175,0.03175));
#1244=CARTESIAN_POINT('',(-0.0713977876642581,0.003175,0.03175));
#1245=CARTESIAN_POINT('',(-0.0634205753285162,0.003175,0.03175));
#1246=CARTESIAN_POINT('',(1.36609473733174E-17,-8.89045781438114E-18,0.03175));
#1247=CARTESIAN_POINT('',(-0.003175,0.0634205753285162,0.03175));
#1248=CARTESIAN_POINT('',(-0.003175,0.0713977876642581,0.03175));
#1249=CARTESIAN_POINT('',(0.003175,0.0713977876642581,0.03175));
#1250=CARTESIAN_POINT('',(0.003175,0.0634205753285162,0.03175));
#1251=CARTESIAN_POINT('',(1.62630325872826E-17,-8.02309607639273E-18,0.03175));
#1252=CARTESIAN_POINT('',(0.0634205753285162,0.003175,0.03175));
#1253=CARTESIAN_POINT('',(0.0713977876642581,0.003175,0.03175));
#1254=CARTESIAN_POINT('',(0.0713977876642581,-0.003175,0.03175));
#1255=CARTESIAN_POINT('',(0.0634205753285162,-0.003175,0.03175));
#1256=CARTESIAN_POINT('',(-3.68628738645072E-18,-1.47451495458029E-17,0.03175));
#1257=CARTESIAN_POINT('',(0.003175,-0.0634205753285162,0.03175));
#1258=CARTESIAN_POINT('',(0.003175,-0.0713977876642581,0.03175));
#1259=CARTESIAN_POINT('',(-0.003175,-0.0713977876642581,0.03175));
#1260=CARTESIAN_POINT('',(-0.003175,-0.0634205753285162,0.03175));
#1261=CARTESIAN_POINT('',(-7.58941520739853E-18,1.53956708492941E-17,0.03175));
#1262=CARTESIAN_POINT('',(-0.088902,1.38777878078145E-17,0.0381));
#1263=CARTESIAN_POINT('',(-0.0713977876642581,-0.003175,0.0381));
#1264=CARTESIAN_POINT('',(-0.0634205753285162,-0.003175,0.0381));
#1265=CARTESIAN_POINT('',(0.,0.,0.0381));
#1266=CARTESIAN_POINT('',(-0.0634205753285162,0.003175,0.0381));
#1267=CARTESIAN_POINT('',(-0.0713977876642581,0.003175,0.0381));
#1268=CARTESIAN_POINT('',(5.40245576059056E-17,-0.088902,0.0122968360784075));
#1269=CARTESIAN_POINT('',(0.060325,-0.088902,0.0101902406588178));
#1270=CARTESIAN_POINT('',(0.060325,-0.00631505778800604,0.0101902406588178));
#1271=CARTESIAN_POINT('',(0.060325,0.00631505778800604,0.0101902406588178));
#1272=CARTESIAN_POINT('',(0.079375,0.,0.009525));
#1273=CARTESIAN_POINT('',(0.0666904682808501,0.00633453171914988,0.0099679536082752));
#1274=CARTESIAN_POINT('',(-0.0711063241879012,0.0751489091054768,0.0147799236347786));
#1275=CARTESIAN_POINT('',(-0.0711063241879015,-0.0751489091054764,0.0147799236347786));
#1276=CARTESIAN_POINT('',(0.06669046828085,-0.00633453171914987,0.0099679536082752));
#1277=CARTESIAN_POINT('',(0.079375,0.,0.009525));
#1278=CARTESIAN_POINT('',(0.,-0.0889,0.0762));
#1279=CARTESIAN_POINT('',(0.,-0.0889,0.));
#1280=CARTESIAN_POINT('',(0.0889,-0.0889,0.));
#1281=CARTESIAN_POINT('',(-0.0889,-0.0889,0.));
#1282=CARTESIAN_POINT('',(0.0889,-0.0889,0.0762));
#1283=CARTESIAN_POINT('',(-0.0889,-0.0889,0.0762));
#1284=CARTESIAN_POINT('',(0.0889,2.77555756156289E-17,0.0762));
#1285=CARTESIAN_POINT('',(0.0889,0.,0.009525));
#1286=CARTESIAN_POINT('',(0.0889,0.,0.015875));
#1287=CARTESIAN_POINT('',(0.0889,2.77555756156289E-17,0.));
#1288=CARTESIAN_POINT('',(0.0889,0.0889,0.));
#1289=CARTESIAN_POINT('',(0.0889,0.0889,0.0762));
#1290=CARTESIAN_POINT('',(0.,0.0889,0.0762));
#1291=CARTESIAN_POINT('',(0.,0.0889,0.));
#1292=CARTESIAN_POINT('',(-0.0889,0.0889,0.));
#1293=CARTESIAN_POINT('',(-0.0889,0.0889,0.0762));
#1294=CARTESIAN_POINT('',(-0.0889,-2.77555756156289E-17,0.0762));
#1295=CARTESIAN_POINT('',(-0.0889,-2.77555756156289E-17,0.));
#1296=CARTESIAN_POINT('',(0.,0.,0.));
#1297=CARTESIAN_POINT('',(-0.088902,0.0396875,0.0123002203490081));
#1298=CARTESIAN_POINT('',(0.088902,0.00633453171914989,0.0099679536082752));
#1299=CARTESIAN_POINT('',(-0.088902,-0.0396875,0.0123002203490081));
#1300=CARTESIAN_POINT('',(0.088902,-0.00633453171914989,0.0099679536082752));
#1301=CARTESIAN_POINT('',(0.060325,1.38777878078145E-17,0.0396875));
#1302=CARTESIAN_POINT('',(0.060325,0.,0.009525));
#1303=CARTESIAN_POINT('',(0.088902,0.,0.009525));
#1304=CARTESIAN_POINT('',(1.36609473733174E-17,-8.89045781438114E-18,-2.000000000002E-06));
#1305=CARTESIAN_POINT('',(-0.0634205753285162,0.003175,-2.000000000002E-06));
#1306=CARTESIAN_POINT('',(1.36609473733174E-17,-8.89045781438114E-18,0.0381));
#1307=CARTESIAN_POINT('',(-0.003175,0.0634205753285162,-2.000000000002E-06));
#1308=CARTESIAN_POINT('',(-0.003175,0.0713977876642581,-2.000000000002E-06));
#1309=CARTESIAN_POINT('',(-0.0713977876642581,0.003175,-2.000000000002E-06));
#1310=CARTESIAN_POINT('',(1.62630325872826E-17,-8.02309607639273E-18,-2.000000000002E-06));
#1311=CARTESIAN_POINT('',(0.003175,0.0634205753285162,-2.000000000002E-06));
#1312=CARTESIAN_POINT('',(1.62630325872826E-17,-8.02309607639273E-18,0.0381));
#1313=CARTESIAN_POINT('',(0.0634205753285162,0.003175,-2.000000000002E-06));
#1314=CARTESIAN_POINT('',(0.003175,0.0713977876642581,-2.000000000002E-06));
#1315=CARTESIAN_POINT('',(0.0713977876642581,0.003175,-2.000000000002E-06));
#1316=CARTESIAN_POINT('',(0.0713977876642581,-0.003175,-2.000000000002E-06));
#1317=CARTESIAN_POINT('',(0.0634205753285162,-0.003175,-2.000000000002E-06));
#1318=CARTESIAN_POINT('',(0.003175,-0.0713977876642581,-2.000000000002E-06));
#1319=CARTESIAN_POINT('',(0.003175,-0.0634205753285162,-2.000000000002E-06));
#1320=CARTESIAN_POINT('',(-3.68628738645072E-18,-1.47451495458029E-17,-2.000000000002E-06));
#1321=CARTESIAN_POINT('',(-3.68628738645072E-18,-1.47451495458029E-17,0.0381));
#1322=CARTESIAN_POINT('',(-7.58941520739853E-18,1.53956708492941E-17,-2.000000000002E-06));
#1323=CARTESIAN_POINT('',(-0.003175,-0.0634205753285162,-2.000000000002E-06));
#1324=CARTESIAN_POINT('',(-7.58941520739853E-18,1.53956708492941E-17,0.0381));
#1325=CARTESIAN_POINT('',(-0.0634205753285162,-0.003175,-2.000000000002E-06));
#1326=CARTESIAN_POINT('',(-0.003175,-0.0713977876642581,-2.000000000002E-06));
#1327=CARTESIAN_POINT('',(-0.0713977876642581,-0.003175,-2.000000000002E-06));
#1328=CARTESIAN_POINT('',(0.,0.,0.0381));
#1329=CARTESIAN_POINT('',(0.,0.,0.042540352558413));
#1330=CARTESIAN_POINT('',(2.77555756156289E-17,0.085725,0.066675));
#1331=CARTESIAN_POINT('',(0.085725,0.085725,0.066675));
#1332=CARTESIAN_POINT('',(0.085725,0.085725,0.066675));
#1333=CARTESIAN_POINT('',(-0.085725,0.085725,0.066675));
#1334=CARTESIAN_POINT('',(-0.085725,0.085725,0.066675));
#1335=CARTESIAN_POINT('',(2.77555756156289E-17,0.085725,0.066675));
#1336=CARTESIAN_POINT('',(-0.085725,0.,0.066675));
#1337=CARTESIAN_POINT('',(-0.085725,-0.085725,0.066675));
#1338=CARTESIAN_POINT('',(-0.085725,-0.085725,0.066675));
#1339=CARTESIAN_POINT('',(-0.085725,0.,0.066675));
#1340=CARTESIAN_POINT('',(-1.38777878078145E-17,-0.085725,0.066675));
#1341=CARTESIAN_POINT('',(0.085725,-0.085725,0.066675));
#1342=CARTESIAN_POINT('',(0.085725,-0.085725,0.066675));
#1343=CARTESIAN_POINT('',(-1.38777878078145E-17,-0.085725,0.066675));
#1344=CARTESIAN_POINT('',(0.085725,0.,0.066675));
#1345=CARTESIAN_POINT('',(0.085725,0.,0.066675));
#1346=CARTESIAN_POINT('',(0.,0.,0.066675));
#1347=CARTESIAN_POINT('',(0.,0.,0.06985));
#1348=MECHANICAL_DESIGN_GEOMETRIC_PRESENTATION_REPRESENTATION('',(#827),#1349);
#1349=(
GEOMETRIC_REPRESENTATION_CONTEXT(3)
GLOBAL_UNCERTAINTY_ASSIGNED_CONTEXT((#1350))
GLOBAL_UNIT_ASSIGNED_CONTEXT((#1353,#1352,#1351))
REPRESENTATION_CONTEXT('Part 1','TOP_LEVEL_ASSEMBLY_PART')
);
#1350=UNCERTAINTY_MEASURE_WITH_UNIT(LENGTH_MEASURE(1.E-08),#1353,'DISTANCE_ACCURACY_VALUE','Maximum Tolerance applied to model');
#1351=(
NAMED_UNIT(*)
SI_UNIT($,.STERADIAN.)
SOLID_ANGLE_UNIT()
);
#1352=(
NAMED_UNIT(*)
PLANE_ANGLE_UNIT()
SI_UNIT($,.RADIAN.)
);
#1353=(
LENGTH_UNIT()
NAMED_UNIT(*)
SI_UNIT($,.METRE.)
);
#1354=PRODUCT_DEFINITION_SHAPE('','',#1355);
#1355=PRODUCT_DEFINITION('','',#1357,#1356);
#1356=PRODUCT_DEFINITION_CONTEXT('',#1363,'design');
#1357=PRODUCT_DEFINITION_FORMATION_WITH_SPECIFIED_SOURCE('','',#1359,.NOT_KNOWN.);
#1358=PRODUCT_RELATED_PRODUCT_CATEGORY('','',(#1359));
#1359=PRODUCT('Part 1','Part 1','Part 1',(#1361));
#1360=PRODUCT_CATEGORY('','');
#1361=PRODUCT_CONTEXT('',#1363,'mechanical');
#1362=APPLICATION_PROTOCOL_DEFINITION('international standard','ap242_managed_model_based_3d_engineering',2020,#1363);
#1363=APPLICATION_CONTEXT('managed model based 3d engineering');
ENDSEC;
END-ISO-10303-21;
